<svg width="46" height="45" viewBox="0 0 46 45" fill="none" xmlns="http://www.w3.org/2000/svg">
<path d="M29.0131 38.2297C28.6951 40.3505 28.0681 42.3022 26.1916 43.576C24.9158 44.4686 23.3785 44.912 21.8221 44.836C18.2575 44.6681 16.0202 42.6994 15.2578 38.9814C14.951 38.9814 14.6173 38.9718 14.2841 38.9831C10.5654 39.1106 6.84725 39.2478 3.12817 39.3613C2.59285 39.3762 2.05774 39.3261 1.53448 39.2125C1.16864 39.1255 0.82677 38.9584 0.533833 38.7232C0.421624 38.646 0.33032 38.5426 0.26808 38.4216C0.205838 38.3008 0.174621 38.1663 0.177212 38.0306C0.179803 37.8946 0.216172 37.7615 0.282977 37.6432C0.34978 37.5248 0.444957 37.4248 0.56002 37.352C3.41609 35.3684 4.56634 32.3526 5.51672 29.227C6.27342 26.738 6.43132 24.1598 6.51394 21.5778C6.61798 18.3178 7.14578 15.1561 8.36469 12.0983C9.952 8.11582 12.8308 5.55763 16.7978 4.13332C17.3651 3.92969 17.6408 3.68277 17.7587 3.06506C18.14 1.06692 19.3765 0.0966336 21.4038 0.0849109C23.3827 0.0743227 24.915 1.23179 25.2961 3.10855C25.3217 3.33489 25.4138 3.54866 25.5609 3.72286C25.7079 3.89705 25.9035 4.02394 26.1226 4.08743C29.1761 5.25384 31.4936 7.27712 33.1899 10.0718C35.46 13.8118 36.814 17.8617 37.5552 22.1465C37.7962 23.5396 38.1307 24.9165 38.4115 26.3028C39.0782 29.5927 40.8344 32.115 43.6815 33.9163C44.2 34.2583 44.6266 34.7218 44.924 35.2663C45.3359 36.0239 45.0172 36.8205 44.193 37.0973C43.4198 37.352 42.6159 37.5023 41.8028 37.5445C37.8354 37.7604 33.8655 37.9243 29.8966 38.1117C29.6197 38.1261 29.3444 38.1847 29.0131 38.2297ZM34.4304 24.4447C34.4986 24.2729 34.5471 24.2118 34.5399 24.1587C34.4669 23.6293 34.383 23.1023 34.3055 22.5738C33.7305 18.65 32.5789 14.9307 30.5445 11.4903C28.1535 7.44653 24.0253 5.4508 19.4216 6.35099C16.0541 7.00935 13.2868 8.67819 11.7087 11.8363C11.0131 13.2292 10.3821 14.7247 10.1119 16.2427C9.6732 18.7081 9.54475 21.2291 9.30863 23.7289C9.22998 24.5608 9.22293 25.3996 9.17593 26.3909C17.6806 25.7331 26.0998 25.3283 34.4304 24.4447ZM5.41365 36.5363C16.6347 35.7439 27.6413 35.5121 38.7722 34.3067C36.7839 32.2623 35.9127 29.8498 35.2032 27.3932L8.92203 28.4142C8.58224 31.3243 7.45104 34.0091 5.41365 36.5363ZM17.3075 38.8185C17.7718 41.0433 19.8469 42.4045 22.2458 42.1551C24.4316 41.9282 25.707 40.5871 25.7276 38.3558L17.3075 38.8185ZM19.6194 3.25571H22.809C22.3673 2.37878 21.6733 2.25928 20.9452 2.28329C20.321 2.30409 19.7872 2.52493 19.62 3.25571H19.6194Z" fill="white"/>
</svg>
