<svg width="36" height="40" viewBox="0 0 36 40" fill="none" xmlns="http://www.w3.org/2000/svg">
<g clipPath="url(#clip0)">
<path d="M10.2683 18.7679C9.23985 18.8217 8.21139 18.8735 7.18299 18.9239C7.12426 18.9267 7.06521 18.9282 7.00615 18.9297C6.83103 18.9297 6.65619 18.944 6.4834 18.9725C5.93402 19.0788 5.65627 19.3877 5.72095 19.8179C5.76016 20.0771 5.97968 20.5013 6.27447 20.5906C6.8777 20.7838 7.50339 20.8977 8.13584 20.9292C9.24552 20.9666 10.4353 20.9616 11.8789 20.9135C15.8445 20.7815 19.8099 20.6447 23.7754 20.503C25.9132 20.4281 28.0511 20.3535 30.1891 20.2791C30.4372 20.2701 30.6907 20.2721 31.0109 20.2746L31.2078 20.276C31.0486 20.4393 30.8948 20.5964 30.7464 20.748C30.2367 21.2691 29.7965 21.7193 29.3568 22.188C28.9396 22.6328 28.5241 23.0919 28.1221 23.5359C27.8463 23.8406 27.5697 24.1448 27.2922 24.4487C26.8438 24.9359 26.3921 25.4199 25.9436 25.9002L25.3481 26.538C25.3236 26.5644 25.3082 26.5979 25.3039 26.6338C25.2996 26.6696 25.3065 26.7057 25.3241 26.7372L25.6278 27.2788C25.6425 27.305 25.664 27.3272 25.6902 27.3423C25.7161 27.3576 25.7457 27.3656 25.7759 27.3656C25.7955 27.3656 25.8152 27.3623 25.8338 27.3556C25.889 27.3355 25.9441 27.3193 25.9972 27.3037C26.1252 27.2733 26.2477 27.2223 26.3595 27.153C29.3396 25.0793 32.195 22.831 34.911 20.4195C35.178 20.1877 35.4147 19.9231 35.6157 19.6318C36.0587 18.9785 35.955 18.2708 35.3383 17.741C35.1808 17.6125 35.0134 17.4967 34.8376 17.395L33.8591 16.7895C31.8826 15.5653 29.8392 14.2999 27.823 13.0632C27.5262 12.8549 27.1899 12.71 26.8351 12.6374C26.6706 12.6261 26.5057 12.6537 26.3537 12.7178C26.2017 12.7819 26.0667 12.8808 25.9595 13.0066C25.7982 13.2413 25.7557 13.7368 25.9362 13.979C26.2485 14.403 26.6293 14.7715 27.0629 15.0693C27.7706 15.5469 28.5021 16.0141 29.2078 16.4657C29.8139 16.853 30.4407 17.2537 31.0491 17.6585C31.1649 17.7359 31.2897 17.8039 31.4098 17.8696C31.706 18.0024 31.9663 18.2041 32.1692 18.4579C31.9732 18.4398 31.7797 18.4203 31.5879 18.4008C30.9729 18.3274 30.3545 18.2871 29.7352 18.2803L29.2481 18.2841C25.3482 18.3146 21.3155 18.3462 17.3504 18.4562C14.9886 18.5219 12.5889 18.6469 10.2683 18.7679Z" fill="white"/>
<path d="M15.6198 0.507008C15.1236 0.435804 8.79867 0.0651441 5.09032 0.0452271C4.56575 0.0727789 3.98097 0.117158 3.41555 0.160145C3.00049 0.19168 2.59007 0.222956 2.20959 0.247023C1.23258 0.308931 0.622826 0.865788 0.446151 1.85798C0.347255 2.48087 0.288631 3.10948 0.270638 3.73996C0.0332516 8.80419 0.086676 13.9521 0.138289 18.931C0.150641 20.1149 0.161671 21.2989 0.171375 22.4828C0.190565 25.133 0.247637 27.9193 0.3459 31.0012C0.39073 32.4042 0.466165 33.8286 0.539283 35.2062C0.585106 36.071 0.63093 36.9359 0.669806 37.801C0.719433 38.8906 1.14491 39.4608 2.09462 39.7069C2.63141 39.8259 3.179 39.889 3.7287 39.8949L3.97353 39.9064C4.65177 39.9396 5.42795 39.9549 6.25971 39.9549C9.80132 39.9549 14.3342 39.6925 16.3982 39.5597C16.6597 39.5429 16.9052 39.4269 17.0841 39.235C17.2633 39.043 17.3627 38.7896 17.3621 38.5266C17.3614 38.2637 17.2607 38.011 17.0805 37.8199C16.9005 37.6289 16.6545 37.514 16.3929 37.4988C15.0243 37.4181 12.5039 37.2664 11 37.1607C9.59222 37.0611 8.15947 36.9985 6.77369 36.9386C5.9775 36.9042 5.1813 36.8697 4.38544 36.8281C4.12866 36.8098 3.87305 36.7778 3.61968 36.7321C3.53399 36.7183 3.44764 36.7044 3.36013 36.6913C3.34855 36.6196 3.3368 36.5509 3.32555 36.4847C3.29029 36.3016 3.26542 36.1165 3.25111 35.9305C3.19553 34.9252 3.13118 33.9034 3.06914 32.9152C2.92026 30.5623 2.76691 28.1291 2.72373 25.7361C2.65029 21.6805 2.65756 17.5547 2.666 13.5646C2.66843 12.2859 2.67002 11.0072 2.6708 9.72835C2.6708 7.8062 2.71017 5.89688 2.74855 4.28261C2.75814 3.87813 2.80082 3.47645 2.85012 3.01106C2.86997 2.82434 2.89065 2.62935 2.91033 2.42172C3.48734 2.38254 4.68039 2.35398 6.15765 2.31896C9.94061 2.229 15.1216 2.1055 16.0811 1.66235C16.1035 1.65197 16.1234 1.63683 16.1394 1.61794C16.1554 1.59905 16.1671 1.577 16.1737 1.5531C16.2191 1.43052 16.2376 1.29938 16.2278 1.16896C16.2179 1.03854 16.1801 0.911806 16.1168 0.797464C16.06 0.715702 15.9861 0.647454 15.9003 0.597288C15.8145 0.547124 15.7187 0.516246 15.6198 0.507008Z" fill="white"/>
</g>
<defs>
<clipPath id="clip0">
<rect width="35.8974" height="40" fill="white"/>
</clipPath>
</defs>
</svg>
