<svg width="50" height="30" viewBox="0 0 50 30" fill="none" xmlns="http://www.w3.org/2000/svg">
<path d="M0.0374073 27.8437C-0.0885704 28.5264 0.5791 29.3053 1.49502 29.5448C1.97456 29.6702 2.47161 29.7424 2.97349 29.7595C3.39249 29.7724 3.81148 29.7878 4.23048 29.8038C5.2112 29.8401 6.21545 29.8776 7.21936 29.8776C7.62271 29.8776 8.02601 29.8715 8.42712 29.8568C10.3799 29.7864 12.3626 29.6814 14.2799 29.58C16.5766 29.4588 18.9511 29.3336 21.2872 29.2657C27.3687 29.0892 33.4735 28.3872 39.3774 27.7085L40.1433 27.6203C41.5274 27.4617 42.9587 27.2971 44.3542 27.0649C44.4159 27.0548 44.4796 27.0457 44.5444 27.0365C45.1051 26.9564 45.952 26.8357 46.1701 25.7554C46.1819 25.6968 46.1676 25.6368 46.1299 25.5867C46.0922 25.5365 46.0338 25.4997 45.9657 25.4835C45.819 25.4484 45.6833 25.4097 45.5545 25.3729C45.2908 25.286 45.014 25.2293 44.7322 25.2046L43.8425 25.1606C41.79 25.0589 39.6676 24.9539 37.576 24.907C31.6489 24.771 25.7173 24.9004 19.8065 25.2944C15.9987 25.5522 12.1216 25.7632 8.37187 25.9673C6.47243 26.0707 4.57288 26.1761 2.67344 26.2837C2.26781 26.2987 1.86614 26.3568 1.47797 26.4567C1.10466 26.5476 0.770446 26.7267 0.515049 26.9728C0.259655 27.2186 0.0937863 27.521 0.0374073 27.8437Z" fill="white"/>
<path d="M1.05403 15.583C1.04477 15.8385 1.12202 16.0909 1.27676 16.3111C1.43149 16.5313 1.65736 16.7102 1.9283 16.827C2.38851 17.0167 2.8887 17.1286 3.40038 17.1563C4.07887 17.1912 4.79085 17.2212 5.51376 17.2212C5.86739 17.2212 6.22337 17.214 6.57923 17.1966C8.70214 17.0944 10.8569 16.9735 12.9418 16.8568C16.8448 16.6384 20.8806 16.4115 24.8524 16.2974C30.259 16.1413 35.6948 15.5842 40.9515 15.0453C42.3297 14.9047 43.7068 14.7658 45.0833 14.6288C45.1928 14.6183 45.304 14.6096 45.4168 14.601C46.2224 14.5388 47.2255 14.4615 48.2492 13.5416C48.2808 13.5131 48.304 13.4785 48.316 13.4409C48.3283 13.4033 48.3297 13.3639 48.3196 13.3259C48.3098 13.2878 48.2889 13.2523 48.259 13.2225C48.2294 13.1926 48.1914 13.1692 48.1484 13.1544C46.2783 12.5089 44.661 12.4205 43.0316 12.3809L41.6096 12.3465C37.1057 12.2365 32.4492 12.1229 27.8504 12.2712C20.1203 12.5211 12.5502 13.1523 4.16499 13.8906C3.37675 13.9628 2.60847 14.1454 1.89229 14.431C1.63726 14.5371 1.42318 14.7016 1.27485 14.9054C1.12651 15.1093 1.04998 15.3442 1.05403 15.583Z" fill="white"/>
<path d="M2.64498 3.364C3.19014 3.58713 3.7798 3.72344 4.38425 3.76598C4.71573 3.7866 5.04737 3.80786 5.37922 3.82973C6.91078 3.9291 8.49045 4.03171 10.0553 4.03171C10.1762 4.03171 10.2974 4.03176 10.4183 4.02988C13.3764 3.99871 16.3829 3.9408 19.2905 3.88478C23.148 3.81072 27.1371 3.73406 31.0594 3.71882C36.6739 3.69702 42.3142 3.15843 47.7692 2.63765L47.9441 2.62106C48.2879 2.56577 48.6164 2.45727 48.913 2.30114C49.1116 2.21301 49.3368 2.11362 49.6133 2.00628C49.6628 1.98722 49.7047 1.95677 49.7343 1.9185C49.7639 1.88024 49.7798 1.83572 49.7804 1.7901C49.7812 1.74449 49.7664 1.69966 49.7379 1.66084C49.7091 1.62202 49.6681 1.59077 49.6192 1.57078C49.3343 1.45359 49.0946 1.3411 48.8832 1.24079C48.5513 1.05342 48.1787 0.923165 47.7862 0.85758L46.7144 0.749318C44.6323 0.53838 42.4792 0.319223 40.3488 0.244692C28.8703 -0.157496 17.215 0.220105 5.94374 0.585497L3.92092 0.650899C3.615 0.661007 3.31109 0.697195 3.01391 0.758932C2.67396 0.812651 2.36337 0.955994 2.12724 1.16812C1.89111 1.38024 1.74172 1.65006 1.70101 1.9383C1.64864 2.23004 1.7129 2.52813 1.88364 2.78603C2.05438 3.04394 2.32211 3.24716 2.64498 3.364Z" fill="white"/>
</svg>
