<svg width="45" height="40" viewBox="0 0 45 40" fill="none" xmlns="http://www.w3.org/2000/svg">
<g clipPath="url(#clip0)">
<path d="M6.96942 30.3201C7.66116 30.7927 7.75172 31.1361 7.39042 31.9181C6.63455 33.5546 5.76262 35.4941 5.02671 37.4775C4.83063 38.0056 4.81658 39.0373 5.24072 39.4515C5.58779 39.7907 6.17659 39.8372 6.74599 39.8819C6.91435 39.8952 7.07329 39.9077 7.22298 39.9275C7.24719 39.9308 7.27157 39.9323 7.29598 39.9323C7.50308 39.9125 7.70252 39.844 7.87776 39.7323L7.95168 39.6936C8.57573 39.3717 9.20038 39.0508 9.82565 38.7308C11.6104 37.8158 13.4557 36.869 15.2526 35.9033L15.2694 35.8945C17.4317 34.7332 19.4722 33.6357 21.978 34.1181C22.0826 34.1347 22.1887 34.1389 22.2944 34.1302C22.3279 34.1286 22.3617 34.1271 22.3948 34.1267C28.3479 34.0727 32.935 32.8403 36.831 30.2486C42.7979 26.2786 45.4771 20.5973 44.1816 14.6615C42.9822 9.16565 40.6171 5.74602 36.5136 3.57404C32.3418 1.3663 27.6406 0.0977434 23.2763 0.0020752C23.2747 0.00235048 23.273 0.00235048 23.2715 0.0020752C17.8846 0.0232734 13.3842 0.908474 9.10877 2.78847C3.92599 5.06699 1.08418 8.34054 0.421266 12.796C0.13551 14.6085 0.101424 16.4515 0.319985 18.2732C1.0376 23.813 3.21281 27.7535 6.96942 30.3201ZM8.79404 34.7994C9.15442 33.5172 9.49447 32.3061 9.91861 31.1459C10.5839 29.3275 9.60203 28.3057 8.67299 27.6187C7.25994 26.5743 5.83063 25.3719 4.94613 23.6628C2.66189 19.2489 2.35104 15.1142 3.9951 11.0222C4.88681 8.80303 6.69701 7.15533 9.69185 5.83662C13.8255 4.01652 17.9397 3.10655 22.0072 3.10655C26.057 3.12454 30.0559 4.00852 33.7343 5.69872C37.9812 7.6071 40.3364 10.7546 41.1464 15.6044C41.8118 19.5842 40.706 22.8991 37.6687 26.0359C34.9638 28.829 31.317 30.4727 26.1921 31.2084C23.609 31.5793 20.5537 31.8866 17.4788 31.3533C17.0949 31.2882 16.6656 31.528 16.3184 31.7219C14.2369 32.8888 12.1749 34.0589 9.99216 35.298L8.3956 36.2038C8.53494 35.7216 8.66616 35.2547 8.79404 34.7995V34.7994Z" fill="white"/>
<path d="M14.0979 19.7763H14.1236C14.4136 19.7754 14.7005 19.7166 14.9675 19.6036C15.2345 19.4904 15.4762 19.3254 15.6784 19.1181C15.8521 18.9393 15.9877 18.7271 16.077 18.4947C16.1663 18.2621 16.2074 18.014 16.1979 17.7653C16.1651 17.2582 15.9457 16.7811 15.5817 16.4256C15.2178 16.0701 14.7349 15.8612 14.226 15.8391C13.9556 15.8408 13.6882 15.8961 13.4394 16.0017C13.1905 16.1072 12.9652 16.2608 12.7763 16.4539C12.5705 16.6501 12.4055 16.8849 12.291 17.1449C12.1764 17.4049 12.1145 17.6851 12.1088 17.969C12.1073 18.1998 12.152 18.4284 12.2403 18.6417C12.3285 18.855 12.4586 19.0484 12.6229 19.211C13.0202 19.5866 13.5506 19.79 14.0979 19.7763Z" fill="white"/>
<path d="M22.8507 20.2877H22.8692C23.3707 20.2837 23.8503 20.0822 24.2037 19.7272C24.5753 19.3668 24.7895 18.8747 24.7997 18.3577C24.8039 17.8416 24.5175 17.2314 24.0521 16.7659C23.7367 16.4128 23.2966 16.1949 22.8239 16.1577H22.818C21.8634 16.1632 20.913 17.2072 20.8991 18.2652C20.8943 18.5298 20.9423 18.7926 21.0405 19.0383C21.1384 19.2842 21.2844 19.5082 21.4702 19.6971C21.6496 19.8818 21.864 20.0291 22.1009 20.1305C22.338 20.2319 22.5927 20.2853 22.8507 20.2877Z" fill="white"/>
<path d="M31.1828 20.0738H31.195C31.6705 20.0556 32.1231 19.8646 32.4674 19.5371C32.8119 19.2093 33.0245 18.7675 33.0653 18.2945C33.0524 17.8271 32.8557 17.3835 32.5177 17.0595C32.0631 16.5544 31.4321 16.2416 30.7541 16.185C30.582 16.1816 30.4113 16.2133 30.2519 16.2779C30.0926 16.3425 29.9483 16.4386 29.8274 16.5607C29.6373 16.7557 29.4878 16.9865 29.388 17.2397C29.2882 17.4929 29.2397 17.7633 29.2458 18.0353C29.2342 18.5612 29.4312 19.0701 29.794 19.4519C30.1566 19.8335 30.6558 20.0572 31.1828 20.0738Z" fill="white"/>
</g>
<defs>
<clipPath id="clip0">
<rect width="44.539" height="40" fill="white"/>
</clipPath>
</defs>
</svg>
