<svg width="42" height="40" viewBox="0 0 42 40" fill="none" xmlns="http://www.w3.org/2000/svg">
<path d="M9.33836 26.2394C12.1627 26.7281 14.9794 26.5079 17.9502 25.566C19.6828 25.0298 21.335 24.2599 22.8621 23.2779C23.1493 23.5987 23.4337 23.9179 23.7152 24.2355C24.4063 25.014 25.0605 25.7494 25.7446 26.4872C29.0876 30.0938 32.7143 33.5231 36.2216 36.8396C36.8591 37.4426 37.4963 38.046 38.1332 38.6498C38.6325 39.1077 39.1808 39.5082 39.7682 39.844C39.9132 39.9216 40.076 39.9599 40.2402 39.9552C40.412 39.9577 40.5823 39.9218 40.7387 39.8499C40.8233 39.8072 40.8985 39.7477 40.9598 39.6752C41.0212 39.6026 41.0676 39.5184 41.096 39.4276C41.1296 39.3194 41.1417 39.2057 41.1314 39.0926C41.1213 38.9798 41.0891 38.8701 41.0367 38.7696C40.7592 38.186 40.4201 37.6342 40.0253 37.1235C39.389 36.3647 38.712 35.6411 37.9975 34.9562C36.3332 33.337 34.6342 31.6984 32.991 30.1137C31.8517 29.015 30.713 27.9155 29.5754 26.815C28.401 25.6779 27.2574 24.5608 26.0468 23.3764C25.5537 22.8943 25.0575 22.4096 24.5582 21.9221L24.6229 21.8508C24.717 21.7474 24.79 21.667 24.8677 21.5913C26.76 19.7489 27.7975 17.444 27.9514 14.7412C28.2188 10.0476 26.6452 6.06321 23.2751 2.89728C21.624 1.30926 19.482 0.337595 17.2053 0.143917C14.9911 -0.0702388 12.7569 0.184961 10.6469 0.893056C7.41213 1.99916 4.66621 4.12118 2.48581 7.20033C0.607143 9.85321 -0.145858 12.7968 0.247743 15.9493C0.504469 18.0064 1.33247 19.9557 2.93217 22.2703C4.44387 24.4565 6.53898 25.7548 9.33836 26.2394ZM12.6836 3.31389C13.436 3.24965 14.2141 3.1834 14.9782 3.15797C15.1077 3.15391 15.2359 3.1518 15.3629 3.15169C18.8458 3.15169 21.5221 4.74033 23.3219 7.87779C24.9327 10.6852 25.3884 13.3758 24.7153 16.1029C24.4845 17.1255 24.0238 18.0814 23.3685 18.897C22.5551 19.8914 21.5666 20.7265 20.4523 21.3606C17.9081 22.8128 15.0465 23.6109 12.1217 23.6842C11.8412 23.653 11.5601 23.6253 11.2789 23.5977C10.6592 23.537 10.0184 23.474 9.39752 23.3721C7.85435 23.1382 6.45212 22.3376 5.4615 21.125C4.25422 19.7091 3.38261 18.0359 2.91245 16.2317C2.37324 14.1405 2.56975 11.9261 3.46872 9.96391C4.47236 7.72272 5.80538 6.06914 7.54414 4.9088C8.93548 3.9805 10.2039 3.50306 11.5356 3.40679C11.9184 3.37916 12.3006 3.34643 12.6829 3.31389H12.6836Z" fill="white"/>
</svg>
